<svg xmlns="http://www.w3.org/2000/svg" viewBox="0 0 90 112.5" fill="none" x="0px" y="0px"><path d="M74.0899 84.9993H16.3325C15.597 84.9993 15 84.4023 15 83.6667V25.9087C15 25.1732 15.597 24.5762 16.3325 24.5762H74.0899C74.8255 24.5762 75.4225 25.1732 75.4225 25.9087V83.6667C75.4225 84.4023 74.8255 84.9993 74.0899 84.9993ZM17.6651 82.3394H72.7626V27.2413H17.6651V82.3394Z" fill="black"/><path d="M64.795 27.2427C64.0594 27.2427 63.4624 26.6457 63.4624 25.9101C63.4624 15.8468 55.2755 7.65988 45.2122 7.65988C35.1488 7.65988 26.962 15.8468 26.962 25.9101C26.962 26.6457 26.365 27.2427 25.6294 27.2427C24.8939 27.2427 24.2969 26.6457 24.2969 25.9101C24.2969 14.381 33.6778 5 45.207 5C56.7361 5 66.1171 14.381 66.1171 25.9101C66.1278 26.6457 65.5305 27.2427 64.795 27.2427Z" fill="black"/></svg>