<svg id="Layer_1" data-name="Layer 1" xmlns="http://www.w3.org/2000/svg" viewBox="0 0 36.68 8.13"><defs><style>.cls-1{fill:#1e398d;}</style></defs><title>logo</title><path class="cls-1" d="M490.52,505.56h-6.84a2.6,2.6,0,0,1-2.6-2.59v-3a2.61,2.61,0,0,1,2.6-2.59h5.83v2.25h-5.83a.34.34,0,0,0-.34.34v.74h4.5v1.52h-4.5V503a.34.34,0,0,0,.34.34h6.05a4.18,4.18,0,0,0,.79,2.24" transform="translate(-481.08 -497.43)"/><path class="cls-1" d="M509.13,497.43a4.23,4.23,0,0,0-.81,2.25h-2.63v5.88h-2.24v-5.88h-2.74v-2.25Z" transform="translate(-481.08 -497.43)"/><path class="cls-1" d="M512.32,499.68h5.44v-2.25h-5.82a2.61,2.61,0,0,0-2.6,2.6V503a2.6,2.6,0,0,0,2.6,2.59h5.82v-2.25h-5.44a.73.73,0,0,1-.73-.73V500.4a.72.72,0,0,1,.73-.72" transform="translate(-481.08 -497.43)"/><path class="cls-1" d="M497.27,502.59a.73.73,0,0,1-.72.73h-2.67a.73.73,0,0,1-.73-.73v-5.16h-2.24V503a2.59,2.59,0,0,0,2.59,2.59h3.43a2.6,2.6,0,0,0,2.6-2.59v-5.54h-2.26Z" transform="translate(-481.08 -497.43)"/></svg>