<svg id="Layer_1" data-name="Layer 1" xmlns="http://www.w3.org/2000/svg" viewBox="0 0 587.92 577.28"><defs><style>.cls-1{fill:#073c3c;}</style></defs><title>logosmall</title><circle class="cls-1" cx="199.16" cy="278.1" r="23.57"/><path class="cls-1" d="M600.49,470.33a23.57,23.57,0,1,0,23.57,23.56A23.56,23.56,0,0,0,600.49,470.33Z" transform="translate(-206.08 -215.79)"/><polygon class="cls-1" points="283.32 314 278.46 314 263.13 337.2 276.59 337.2 283.32 314"/><polygon class="cls-1" points="323.72 337.2 308.39 314 303.52 314 310.26 337.2 323.72 337.2"/><path class="cls-1" d="M499.5,631.35c27.89,0,50.5-28,50.5-46.56H449C449,603.38,471.61,631.35,499.5,631.35Z" transform="translate(-206.08 -215.79)"/><path class="cls-1" d="M648.75,716.07c7.53-7.12,18.25-18.38,24.3-29.8,1.4-1.41,2.78-2.85,4.14-4.3l1.8,2.92s17.45-19.49,27.28-40.78a239.16,239.16,0,0,0,17.81-34.63c10.66-8.71,23.7-10.58,23.7-10.58l-4.3,4.3s25.8-8.6,30.1-21.49c0,0,12.9-4.3,17.2-25.8s4.29-47.29,0-55.89-12.9-25.8-21.5-30.1h4.3s-12.9-12.89-30.1-17.19c-5-1.24-9.21-5-12.74-9.71a237.9,237.9,0,0,0-10.17-26.1l1.42,1.41s-4.3-21.49-25.8-43h4.3s-4.3-12.9-30.09-30.09h4.3s-12.9-17.2-43-34.4H636s-38.16-25.79-55.89-25.79c-9.21,0-17.92-5.59-22.81-9.41C549.71,250.8,536,246.36,536,246.36c4.3,12.9-4.29,25.8-4.29,25.8-12.9-43-43-43-43-43a34.14,34.14,0,0,1,4.3,34.39c-17.19-55.89-64.49-47.29-64.49-47.29,43,17.2,30.1,51.59,30.1,51.59-34.4-38.69-64.49-25.8-64.49-25.8,30.09,4.3,43,38.7,25.79,43s-55.89,25.79-55.89,25.79h4.3c-30.09,17.2-43,34.4-43,34.4h4.3c-25.8,17.19-30.09,30.09-30.09,30.09h4.29c-21.49,21.5-25.79,43-25.79,43l4.3-4.3s-8.6,34.4-25.8,38.7-30.09,17.19-30.09,17.19h4.3c-8.6,4.3-17.2,21.5-21.5,30.1s-4.3,34.39,0,55.89,17.2,25.8,17.2,25.8c4.3,12.89,30.09,21.49,30.09,21.49l-4.3-4.3s18.43,2.64,29.38,16.27q3.19,7.16,6.83,14.06l0,0c6.12,26.07,32.56,55.61,32.56,55.61l3.09-5c5.34,15,21.49,31.08,30.09,38.88l5.78.58s21.68,28.18,43.36,36.85l6.5-2.16a387.08,387.08,0,0,0,34.34,18.42c1.4.66,3.68-2.32,3.68-2.32s21.68,17.35,42.2,18.58l-6.51-8.67,17.35,13L495.62,781,514,793.07l-8.67-10.84,9.84,3.1-2-3.72s3.11-.33,4.85-.54c9.24-1.16,21.64-3.38,30.64-7.51,24.68-11.35,36.86-19.51,36.86-19.51l-4.34-4.34s30.35-4.34,43.36-17.34l-2.17-2.17ZM278.09,585.69a56.8,56.8,0,1,1,0-113.6Zm320.23-3.51v.17H583.93V611.8h-.1a83.76,83.76,0,0,1-167.46,0h-.11V582.35H403.07v-.17a84.05,84.05,0,0,1,0-168V414H598.32v.17a84.05,84.05,0,0,1,0,168Zm121.6,3.51V472.09a56.8,56.8,0,0,1,0,113.6Z" transform="translate(-206.08 -215.79)"/></svg>