 <svg id="Layer_1" data-name="Layer 1" xmlns="http://www.w3.org/2000/svg" viewBox="0 0 747.79 747.73"><defs><style>.cls-1{fill:#073c3c;}</style></defs><title>logo</title><path class="cls-1" d="M388.48,856.29c79.3,24.77,166.68,22.62,244.39-7A378.39,378.39,0,0,0,800.42,722.83c43.28-57.63,68.67-127.66,73.31-199.51a373.95,373.95,0,1,0-699.4,158.94c7.62,13.59,15.83,27.5,25.87,39.47C216.35,741,237.28,757.59,260,768.26c17.06,8,35.26,12.79,54.18,12.93,12.87.09,12.88-19.91,0-20-31.61-.23-60.84-16.33-83.08-36.4a158,158,0,0,1-17.57-18.18c-.31-.38-.63-.75-.93-1.15-.14-.19,1.38,1.91-.07-.25-.84-1.27-1.76-2.5-2.63-3.75q-2.61-3.76-5.13-7.6-9-13.74-16.76-28.24C149.81,594.06,137.5,509.51,153.5,430a354,354,0,0,1,699.94,41.53c5.26,69-9.49,138.78-43.12,199.35a357.19,357.19,0,0,1-140.08,139.3c-63.88,35-137.75,49-210.08,41A353.32,353.32,0,0,1,393.8,837c-12.32-3.85-17.59,15.45-5.32,19.28Z" transform="translate(-126.71 -125.6)"/><circle class="cls-1" cx="362.14" cy="215.4" r="10.87"/><path class="cls-1" d="M578.91,330.13A10.87,10.87,0,1,0,589.78,341,10.87,10.87,0,0,0,578.91,330.13Z" transform="translate(-126.71 -125.6)"/><polygon class="cls-1" points="400.96 231.95 398.71 231.95 391.64 242.66 397.85 242.66 400.96 231.95"/><polygon class="cls-1" points="419.59 242.66 412.52 231.95 410.27 231.95 413.38 242.66 419.59 242.66"/><path class="cls-1" d="M532.33,404.4c12.86,0,23.29-12.9,23.29-21.47H509C509,391.5,519.46,404.4,532.33,404.4Z" transform="translate(-126.71 -125.6)"/><path class="cls-1" d="M666.68,343.83c-2-4-5.94-11.9-9.91-13.89h2s-6-5.95-13.88-7.93a11.13,11.13,0,0,1-5.88-4.48,109.54,109.54,0,0,0-4.69-12l.65.66s-2-9.92-11.89-19.83h2s-2-5.95-13.88-13.89h2s-5.95-7.93-19.83-15.86h2s-17.6-11.9-25.78-11.9c-4.25,0-8.27-2.58-10.52-4.34-3.5-11.46-9.8-13.51-9.8-13.51,2,6-2,11.9-2,11.9-6-19.83-19.83-19.83-19.83-19.83a15.74,15.74,0,0,1,2,15.86c-7.93-25.78-29.74-21.81-29.74-21.81,19.83,7.93,13.88,23.8,13.88,23.8-15.87-17.85-29.75-11.9-29.75-11.9,13.88,2,19.83,17.85,11.9,19.83s-25.78,11.9-25.78,11.9h2C458,264.5,452,272.43,452,272.43h2c-11.9,7.94-13.89,13.89-13.89,13.89h2c-9.92,9.91-11.9,19.83-11.9,19.83l2-2s-4,15.87-11.9,17.85-13.88,7.93-13.88,7.93h2c-4,2-7.93,9.92-9.91,13.89s-2,15.86,0,25.78,7.93,11.89,7.93,11.89c2,5.95,13.88,9.92,13.88,9.92l-2-2s8.5,1.21,13.55,7.5q1.47,3.3,3.15,6.49v0c2.82,12,15,25.65,15,25.65l1.43-2.3c2.46,6.92,9.91,14.34,13.87,17.94l2.55,28s-111.06,2-132.87,128.9-23.8,168.56-23.8,178.48H483.74S430.2,619.48,463.91,613.53l33.71,126.92h33.72l-27.77-128.9h15.87l31.73,128.9h33.71l-23.8-150.72s31.13-77.81,40.09-146.25c3.48-3.28,8.42-8.48,11.21-13.74.65-.65,1.28-1.32,1.91-2l.83,1.35s8-9,12.59-18.81a110.34,110.34,0,0,0,8.21-16,24.87,24.87,0,0,1,10.93-4.88l-2,2s11.9-4,13.88-9.92c0,0,6-2,7.93-11.89S668.67,347.79,666.68,343.83ZM430.2,383.34a26.2,26.2,0,0,1,0-52.4Zm147.71-1.61v.07h-6.63v13.59h0a38.64,38.64,0,0,1-77.25,0h-.05V381.8h-6.08v-.07a38.77,38.77,0,0,1,0-77.49v-.08h90.06v.08a38.77,38.77,0,0,1,0,77.49ZM634,383.34v-52.4a26.2,26.2,0,1,1,0,52.4Z" transform="translate(-126.71 -125.6)"/></svg>
    