<svg id="Layer_1" data-name="Layer 1" xmlns="http://www.w3.org/2000/svg" viewBox="0 0 23.13 23.13"><defs><style>.cls-1{fill:#fff;fill-rule:evenodd;}</style></defs><title>opennewtabicon</title><path class="cls-1" d="M845.46,88.73,837,97.18a1.27,1.27,0,1,0,1.8,1.8l8.44-8.45v2.83a1.16,1.16,0,1,0,2.31,0V87.58a1.14,1.14,0,0,0-1.15-1.16h-5.78a1.16,1.16,0,1,0,0,2.31Zm4.1,11.57v6.36a2.73,2.73,0,0,1-2.56,2.89H829a2.75,2.75,0,0,1-2.56-2.89V89.3A2.74,2.74,0,0,1,829,86.42h6.69a1.16,1.16,0,1,1,0,2.31h-6.28a.72.72,0,0,0-.66.77v17a.73.73,0,0,0,.66.77h17.18a.71.71,0,0,0,.66-.77V100.3a1.16,1.16,0,1,1,2.31,0" transform="translate(-826.44 -86.42)"/></svg>