<svg id="Layer_1" data-name="Layer 1" xmlns="http://www.w3.org/2000/svg" viewBox="0 0 46.12 46.45"><defs><style>.cls-1{fill:#fff;}</style></defs><title>twitter</title><path class="cls-1" d="M536.43,71.26a23.06,23.06,0,1,1-23-23.24,23,23,0,0,1,23,23.24M500.69,81.44c.12.41.46.5.73.63,7.27,3.55,16.18,2.15,21.42-5a20.69,20.69,0,0,0,3.3-8.92c.24-1.33.44-2.65,1.66-3.53a2.82,2.82,0,0,0,.62-.84c.09-.15.21-.34.08-.52s-.35-.11-.53-.08c-.42.07-.82.36-1.39.19.35-.45.66-.81.92-1.2s.69-.83.36-1.22-.75.07-1.1.22A3.38,3.38,0,0,1,523,60.8c-2.25-1.59-5.76-.83-7.54,1.26a7.85,7.85,0,0,0-1.61,4.4c-.07.59-.31.72-.83.66a15.46,15.46,0,0,1-2.77-.56,17.54,17.54,0,0,1-7.5-4.71c-.49-.5-.78-.47-1.08.11a4.26,4.26,0,0,0-.53,2.95,8.45,8.45,0,0,0,1.29,3c.13.19.36.4.23.65s-.43.12-.65.07c-.68-.16-.88.17-.81.78a5.8,5.8,0,0,0,.79,2.35,7.27,7.27,0,0,0,1.85,1.9c.2.15.56.41.16.6-1.07.51-.48,1.1-.14,1.67a6,6,0,0,0,3.19,2.47c.29.11.75.12.8.45s-.42.5-.7.66a12.29,12.29,0,0,1-2.91,1.19c-1.16.33-2.36.45-3.55.72" transform="translate(-490.31 -48.02)"/></svg>