<svg id="Layer_1" data-name="Layer 1" xmlns="http://www.w3.org/2000/svg" viewBox="0 0 117.74 26.09"><defs><style>.cls-1{fill:#fff;}</style></defs><title>whitelogo</title><path class="cls-1" d="M570.92,128.66H549a8.35,8.35,0,0,1-8.35-8.33v-9.44a8.35,8.35,0,0,1,8.35-8.32h18.7v7.2H549a1.12,1.12,0,0,0-1.11,1.12v2.37h14.46v4.88H547.85v2.19a1.1,1.1,0,0,0,1.11,1.09h19.38l0,0a13.65,13.65,0,0,0,2.56,7.21" transform="translate(-540.61 -102.56)"/><path class="cls-1" d="M630.65,102.57a13.52,13.52,0,0,0-2.62,7.2h-8.41v18.89h-7.21V109.77h-8.78v-7.2Z" transform="translate(-540.61 -102.56)"/><path class="cls-1" d="M640.87,109.77h17.48v-7.21H639.66a8.34,8.34,0,0,0-8.33,8.33v9.44a8.34,8.34,0,0,0,8.33,8.33h18.69v-7.24H640.87a2.33,2.33,0,0,1-2.33-2.34v-7a2.33,2.33,0,0,1,2.33-2.33" transform="translate(-540.61 -102.56)"/><path class="cls-1" d="M592.58,119.12a2.33,2.33,0,0,1-2.33,2.33h-8.57a2.33,2.33,0,0,1-2.33-2.33V102.56h-7.2v17.77a8.33,8.33,0,0,0,8.32,8.33h11a8.33,8.33,0,0,0,8.32-8.33V102.56h-7.24Z" transform="translate(-540.61 -102.56)"/></svg>